<svg width="97" height="42" viewBox="0 0 97 42" fill="none" xmlns="http://www.w3.org/2000/svg">
<path d="M46.6201 38.3647L44.9551 32.6073H43.5391V41.0101H44.9084V36.2952L46.1533 41.0101H47.118L48.3318 36.2952V41.0101H49.6855V32.6073H48.2695L46.6201 38.3647Z" fill="#0071BC"/>
<path d="M53.9493 32.6073H52.0042L51.0083 38.038L50.5415 41.0101H51.9731L52.2532 39.2361H53.7003L53.9804 41.0101H55.412L54.9452 38.038L53.9493 32.6073ZM52.4399 38.0224L52.9845 34.5212L53.5292 38.0224H52.4399Z" fill="#0071BC"/>
<path d="M58.0874 35.875L57.1227 32.6073H55.6133L57.3405 37.3689L57.3872 37.4778V41.0101H58.8032V37.4778L58.8344 37.3689L60.5616 32.6073H59.0522L58.0874 35.875Z" fill="#0071BC"/>
<path d="M63.3475 32.4672C61.9938 32.4672 61.3091 33.0585 61.3091 34.2256V39.3606C61.3091 40.5432 61.9938 41.1346 63.3475 41.1346C64.7013 41.1346 65.386 40.5432 65.386 39.3606V34.2256C65.386 33.0585 64.7013 32.4672 63.3475 32.4672ZM63.97 39.3762C63.97 39.7496 63.7677 39.9519 63.3475 39.9519C62.943 39.9519 62.7251 39.7652 62.7251 39.3762V34.2411C62.7251 33.8677 62.9274 33.6654 63.332 33.6654H63.3475C63.7521 33.6654 63.97 33.8521 63.97 34.2411V39.3762Z" fill="#0071BC"/>
<path d="M70.5364 35.6416V34.3812C70.5364 33.1986 69.914 32.6228 68.6536 32.6073H66.584V41.0101H68V37.3377L68.1867 37.3222L69.4627 41.0101H71.0188L69.4316 37.1043C70.1629 36.8554 70.5364 36.373 70.5364 35.6416ZM69.1204 35.6416C69.1204 35.9061 68.9959 36.0929 68.7314 36.1707C68.6536 36.1862 68.5291 36.2018 68.3268 36.2018H68V33.7899H68.498C68.9025 33.7899 69.1204 33.9766 69.1204 34.3656V35.6416Z" fill="#0071BC"/>
<path d="M73.2603 32.6073H71.8442V41.0101H73.2603V32.6073Z" fill="#0071BC"/>
<path d="M76.5277 32.4672C75.1739 32.4672 74.4892 33.0585 74.4892 34.2256V35.0192C74.4892 35.7972 74.9249 36.4508 75.8119 36.9954C76.6988 37.54 77.1345 38.0068 77.1345 38.4114V39.3762C77.1345 39.7496 76.9322 39.9519 76.5121 39.9519C76.092 39.9519 75.8897 39.7652 75.8897 39.3762V38.2403H74.4736V39.3762C74.4736 40.5588 75.1583 41.1346 76.5121 41.1501C77.8659 41.1501 78.5505 40.5588 78.5505 39.3762V38.3181C78.5505 37.5711 78.1148 36.9176 77.2279 36.373C76.3409 35.8283 75.9052 35.3771 75.9052 35.0036V34.2411C75.9052 33.8677 76.1075 33.6654 76.5121 33.6654H76.5277C76.9322 33.6654 77.1501 33.8521 77.1501 34.2411V35.3771H78.5661V34.2411C78.5661 33.0585 77.8814 32.4672 76.5277 32.4672Z" fill="#0071BC"/>
<path d="M79.3599 33.8054H80.6981V41.0101H82.1141V33.8054H83.4368V32.6073H79.3599V33.8054Z" fill="#0071BC"/>
<path d="M87.0308 32.6073H85.0857L84.0899 38.038L83.623 41.0101H85.0546L85.3347 39.2361H86.7819L87.062 41.0101H88.4936L88.0267 38.038L87.0308 32.6073ZM85.5059 38.0224L86.0505 34.5212L86.5951 38.0224H85.5059Z" fill="#0071BC"/>
<path d="M93.8781 27.7835H87.576V22.9285H93.0845C94.0959 22.9285 94.6406 22.5239 94.874 22.2905C95.2785 21.8859 95.4964 21.4036 95.4964 20.8745C95.4964 20.1431 95.1696 19.7074 94.9051 19.4585C94.5939 19.1628 94.0648 18.8205 93.1623 18.8205H87.5604V13.8877H93.7692C94.4849 13.8877 95.0918 13.6543 95.5431 13.2342C95.9165 12.8607 96.1188 12.3783 96.1188 11.8337C96.1188 11.2891 95.9165 10.8067 95.5586 10.4332L95.4964 10.3866C95.0607 9.99754 94.485 9.77969 93.8625 9.77969H84.8529C84.3082 9.77969 83.7947 9.96642 83.3902 10.2776C83.6391 10.6511 83.7947 11.0712 83.7947 11.5536C83.7947 12.0671 83.6391 12.5651 83.3279 13.063L83.2812 13.1408L82.5654 14.1367V29.7285C82.5654 30.1176 82.6899 30.5377 82.9078 30.9423C83.0945 31.3313 83.6236 31.9537 85.0396 31.9537H93.6291C94.5628 31.9537 95.1385 31.6425 95.4497 31.378L95.4964 31.3313C95.8854 30.9423 96.1033 30.4755 96.1033 29.962C96.1033 29.3862 95.9165 28.9038 95.5586 28.5304C95.2007 28.0169 94.5939 27.7835 93.8781 27.7835Z" fill="#0071BC"/>
<path d="M76.3102 29.8375V21.6525L81.8809 13.9033L82.2388 13.4054L82.5967 12.9074L82.7367 12.7207C82.9857 12.3161 83.1102 11.9115 83.1102 11.507C83.1102 11.2424 83.048 10.9934 82.939 10.76C82.8923 10.6511 82.8145 10.5422 82.7523 10.4488C82.6901 10.3555 82.5967 10.2776 82.5189 10.1998C82.4722 10.1532 82.4411 10.1065 82.3788 10.0754C81.9276 9.73303 81.3674 9.56186 80.7605 9.56186C79.8269 9.56186 79.0333 9.982 78.5042 10.7289L73.7582 17.2644L69.0122 10.6667C68.4831 9.95087 67.6584 9.56186 66.7092 9.56186C66.2112 9.56186 65.7444 9.7019 65.3398 9.93532L65.4021 9.99756C65.8845 10.4955 66.149 11.1179 66.149 11.8026C66.149 12.4717 65.9 13.0786 65.4332 13.5454L71.284 21.6525V29.8375C71.284 30.491 71.5486 31.0512 72.031 31.4714C72.6534 32.016 73.3225 32.1249 73.7582 32.1249C74.4429 32.1249 75.0497 31.9071 75.5166 31.5025C76.0456 31.0668 76.3102 30.491 76.3102 29.8375Z" fill="#0071BC"/>
<path d="M63.0836 13.8566C63.6438 13.8566 64.1262 13.7166 64.5308 13.452C64.6241 13.3898 64.7175 13.312 64.7953 13.2497C64.8108 13.2342 64.8264 13.2186 64.842 13.203C64.9042 13.1408 64.9665 13.063 65.0287 12.9852C65.2932 12.6429 65.4333 12.2383 65.4333 11.8026C65.4333 11.258 65.231 10.7756 64.8575 10.4021L64.8108 10.3554C64.733 10.2776 64.6397 10.2154 64.5463 10.1531C64.4529 10.0909 64.344 10.0287 64.2507 9.98197C63.9239 9.82637 63.566 9.733 63.177 9.733H54.1673C53.5138 9.733 52.9225 9.96642 52.4868 10.4177L52.4401 10.4799C52.0822 10.9001 51.8799 11.4291 51.8799 12.036V12.0827C52.3156 12.5495 52.689 13.063 53.0003 13.6232L53.0314 13.6854C53.4982 14.6346 53.7472 15.7239 53.7939 16.9687C53.7939 18.0269 53.5604 19.0383 53.1247 20.0186C52.798 20.7033 52.3778 21.3102 51.8799 21.8704V29.6663C51.8799 30.0553 52.0044 30.4755 52.2222 30.88C52.4089 31.2691 52.938 31.8915 54.354 31.8915H62.9436C63.8772 31.8915 64.453 31.5803 64.7642 31.3157L64.8108 31.2691C65.1999 30.88 65.4177 30.4132 65.4177 29.8997C65.4177 29.324 65.231 28.8416 64.8731 28.4681C64.4685 28.0169 63.8616 27.7834 63.1614 27.7834H56.8593V22.9285H62.3678C63.3793 22.9285 63.9239 22.5239 64.1573 22.2905C64.5619 21.8859 64.7797 21.4035 64.7797 20.8745C64.7797 20.1431 64.453 19.7074 64.1884 19.4585C63.8772 19.1628 63.3481 18.8205 62.4456 18.8205H56.8438V13.8877H63.0836V13.8566Z" fill="#0071BC"/>
<path d="M47.9736 23.7221C49.0162 23.3642 49.9187 22.8351 50.6968 22.1505C50.8679 21.9949 51.0235 21.8393 51.1791 21.6836C51.3036 21.5436 51.4125 21.4036 51.537 21.2635C51.6615 21.1079 51.786 20.9523 51.8949 20.7811C52.1128 20.4699 52.3151 20.1431 52.4862 19.7852C52.9064 18.8827 53.1087 17.9335 53.1087 16.9687C53.0775 15.8172 52.8441 14.7902 52.4084 13.9188L52.3773 13.8722C52.2373 13.6076 52.0661 13.3587 51.8949 13.1252C51.786 12.9696 51.6615 12.814 51.537 12.674C51.4281 12.5339 51.3036 12.425 51.1791 12.3005C50.9457 12.0516 50.6968 11.8181 50.4167 11.6159C49.6231 11.009 48.6894 10.5422 47.6313 10.231C46.6043 9.91974 45.4995 9.76413 44.3169 9.76413H38.4038C37.828 9.76413 37.2834 9.9353 36.7855 10.2621C36.3964 10.5266 35.9296 11.0401 35.9296 11.9893V14.2145C36.3653 14.8992 36.7388 15.6305 37.0344 16.4241C37.5324 17.7623 37.8125 19.2562 37.8436 20.8589C37.8436 22.9752 37.3768 24.9203 36.4587 26.6475C36.3031 26.9587 36.1164 27.2544 35.9141 27.55V29.9153C35.9141 30.7244 36.3186 31.2224 36.661 31.5025L36.7232 31.5491C37.7191 32.2494 39.1507 32.2338 40.0843 31.5491C40.4578 31.2846 40.9091 30.8022 40.9091 29.9775V24.329H44.7214C45.8729 24.2978 46.9777 24.1111 47.9736 23.7221ZM40.9091 20.3454V13.6854H44.1768C45.3127 13.6854 46.2464 13.9811 47.0089 14.588C47.7091 15.117 48.0514 15.8951 48.0514 16.9376C48.0514 17.9491 47.6935 18.7427 46.9466 19.3807C46.1997 20.0342 45.2505 20.3454 44.0368 20.3454H40.9091Z" fill="#0071BC"/>
<path d="M37.1439 20.8433C37.1128 19.3028 36.8482 17.8712 36.3659 16.5953C36.2414 16.2529 36.1013 15.9262 35.9457 15.5994C35.8368 15.3815 35.7123 15.1637 35.5878 14.9458C35.4789 14.7435 35.3544 14.5568 35.2299 14.3701C34.9031 13.8877 34.5608 13.4209 34.1562 13.0007C33.5182 12.3161 32.7869 11.7403 32.0089 11.2579C29.5969 11.4135 27.185 11.5847 24.7731 11.7403C22.5479 11.8959 20.3072 12.036 18.082 12.1916C17.6619 12.5495 17.2728 12.9229 16.9305 13.3275C16.9927 13.4364 17.0706 13.5298 17.1328 13.6387L17.1639 13.701C17.6307 14.6346 17.8797 15.7394 17.9264 16.9843C17.9264 18.0268 17.693 19.0539 17.2573 20.0342C16.7905 20.9989 16.1369 21.8548 15.3433 22.5706C15.0477 22.8351 14.7364 23.0685 14.4097 23.2864C14.6431 24.4845 15.0632 25.6049 15.6545 26.6475C16.6193 28.328 18.0353 29.6818 19.8248 30.6622C21.5676 31.6114 23.5438 32.0782 25.7068 32.0782C28.072 32.0782 30.1416 31.5647 31.8221 30.5221C32.6935 30.0086 33.4871 29.4017 34.1718 28.6859C34.5764 28.2658 34.9343 27.8301 35.2455 27.3633C35.37 27.1766 35.4944 26.9898 35.6034 26.8031C35.6812 26.6631 35.7745 26.523 35.8523 26.3674C35.899 26.2896 35.9302 26.2118 35.9613 26.1495C36.7237 24.5624 37.1439 22.7729 37.1439 20.8433ZM31.402 24.1111C31.0908 24.9981 30.6395 25.7605 30.0326 26.3674C29.4724 26.9431 28.8033 27.3944 28.1187 27.6589C27.3095 27.9546 26.4848 28.1102 25.6756 28.1102C24.104 28.1102 22.9058 27.7679 22.0189 27.0521C21.0541 26.274 20.385 25.3715 19.996 24.2667C19.5758 23.1152 19.3735 21.9481 19.3735 20.7811C19.3735 19.1939 19.6692 17.8246 20.2449 16.7042C20.8051 15.6461 21.5365 14.8525 22.5168 14.2923C23.4816 13.7477 24.5086 13.4831 25.6756 13.4831C26.547 13.4831 27.3406 13.6232 28.1187 13.9188C28.8656 14.1989 29.5191 14.6346 30.0638 15.1792C30.6706 15.8328 31.1219 16.5953 31.4175 17.4511C31.7599 18.4314 31.9466 19.5518 31.9466 20.7344C31.931 22.0571 31.7288 23.1775 31.402 24.1111Z" fill="#0071BC"/>
<path d="M16.5566 19.7853C16.9768 18.8827 17.179 17.9335 17.179 16.9688C17.1479 15.8173 16.9145 14.7903 16.4788 13.9189L16.4477 13.8722C16.4477 13.8722 16.4477 13.8566 16.4321 13.8566C16.3699 13.7477 16.3076 13.6543 16.2298 13.5454C16.1676 13.4365 16.1054 13.3431 16.0431 13.2342C15.6074 12.6118 15.0783 12.0516 14.487 11.6003C13.6934 10.9935 12.7598 10.5266 11.7017 10.2154C10.6747 9.9042 9.56985 9.7486 8.38723 9.7486H2.47416C1.91397 9.7486 1.35378 9.91977 0.85584 10.2465C0.466822 10.5111 0 11.0246 0 11.9738V29.8997C0 30.7089 0.404579 31.2068 0.746915 31.4869L0.809157 31.5336C1.80504 32.2338 3.23663 32.2183 4.17028 31.5336C4.54373 31.2691 4.99499 30.7867 4.99499 29.962V24.3134H8.80737C9.95887 24.3134 11.0481 24.1111 12.0596 23.7221C12.6042 23.5354 13.1177 23.2864 13.6001 23.0063C13.709 22.9441 13.8179 22.8663 13.9269 22.7885C14.0358 22.7107 14.1447 22.6484 14.2536 22.5706C14.4404 22.4306 14.6115 22.2905 14.7827 22.1349C15.5296 21.4814 16.1209 20.6878 16.5566 19.7853ZM11.0637 19.3807C10.3168 20.0342 9.36756 20.3455 8.15382 20.3455H5.01055V13.6855H8.27831C9.41424 13.6855 10.3479 13.9811 11.1104 14.588C11.8106 15.117 12.1529 15.8951 12.1529 16.9377C12.1685 17.9491 11.8106 18.7583 11.0637 19.3807Z" fill="#0071BC"/>
<path d="M14.2068 6.18514C15.0782 6.1229 15.9496 6.07622 16.821 6.01397C18.5638 5.88949 20.291 5.78056 22.0338 5.65608C22.4384 5.62496 22.6251 5.71832 22.6562 5.96729C22.6874 6.21626 22.5006 6.34075 22.0805 6.37187C19.5908 6.54304 17.1011 6.69865 14.6113 6.86981C14.518 6.86981 14.409 6.88538 14.2846 6.88538C14.3001 6.97874 14.3001 7.02542 14.3157 7.07211C14.7825 8.48813 15.2493 9.88859 15.7162 11.3046C15.8095 11.5847 15.8095 11.5847 16.1519 11.5692C17.1477 11.5069 18.1592 11.4291 19.1551 11.3669C23.0297 11.1023 26.9043 10.8534 30.7789 10.5888C31.6192 10.5266 32.4439 10.4799 33.2842 10.4177C33.6265 10.4021 33.6265 10.3865 33.6732 10.0909C33.86 8.72154 34.0622 7.3522 34.249 5.98285C34.2645 5.84281 34.2801 5.70276 34.2957 5.54715C34.1556 5.56271 34.0622 5.56271 33.9533 5.56271C31.4636 5.73388 28.9894 5.88949 26.4997 6.06066C26.4064 6.06066 26.313 6.07622 26.2196 6.07622C26.0018 6.06065 25.8617 5.92061 25.8462 5.74944C25.8306 5.56272 25.9551 5.42266 26.173 5.37598C26.2508 5.36042 26.3286 5.36043 26.4064 5.36043C27.1844 5.31374 27.978 5.26706 28.756 5.22038C30.4677 5.11145 32.195 4.98697 33.9066 4.86248C34.4979 4.8158 34.389 4.90916 34.4513 4.41122C34.4824 4.16225 34.4824 4.14669 34.2023 4.17781C32.5373 4.28673 30.8879 4.39566 29.2229 4.50459C27.4645 4.61351 25.7217 4.73799 23.9633 4.86248C22.1894 4.98697 20.431 5.09589 18.6571 5.20482C17.35 5.28262 16.0274 5.37598 14.7203 5.46935C14.4246 5.48491 14.129 5.51603 13.7866 5.53159C13.8489 5.73388 13.8955 5.90505 13.9267 6.06066C13.9889 6.16958 14.0823 6.2007 14.2068 6.18514ZM22.8896 8.7371C22.8585 9.12612 23.0919 9.25061 23.481 9.31285C23.6832 9.34397 23.8855 9.42178 24.1345 9.48402C24.1345 9.37509 24.1345 9.29729 24.1345 9.23505C24.0878 8.75266 24.0411 8.27028 24.01 7.7879C23.9945 7.64785 23.9478 7.57005 23.7766 7.49224C23.1231 7.21215 22.8896 6.5586 23.2631 6.01397C23.6054 5.50047 24.399 5.36042 24.9903 5.6872C25.7061 6.07622 25.7217 6.97874 25.0215 7.39888C24.8659 7.49224 24.8192 7.58561 24.8347 7.74121C24.8814 8.20804 24.9281 8.67486 24.9592 9.15724C24.9592 9.23505 24.9748 9.29729 25.0059 9.42177C25.2393 9.32841 25.426 9.23505 25.6439 9.1728C26.0018 9.06388 26.1885 8.89271 26.0952 8.53481C26.0329 8.27028 26.3286 8.06799 26.6087 8.14579C26.7798 8.19248 26.8888 8.3014 26.9043 8.45701C26.9354 8.69042 26.951 8.92383 26.9666 9.15724C26.9821 9.32841 26.8888 9.43733 26.7176 9.51514C26.6398 9.54626 26.5775 9.57738 26.4997 9.6085C25.9551 9.84191 25.426 10.0753 24.8659 10.2932C24.7414 10.3399 24.5546 10.3554 24.4146 10.3243C23.8544 10.1843 23.3098 10.0286 22.7496 9.88859C22.6562 9.85747 22.5473 9.84191 22.4539 9.81079C22.2517 9.76411 22.1427 9.63962 22.1272 9.4529C22.1116 9.23504 22.0805 9.01719 22.0649 8.8149C22.0494 8.58149 22.205 8.44145 22.4228 8.41032C22.6874 8.3792 22.9052 8.51925 22.8896 8.7371Z" fill="#0071BC"/>
<path d="M32.8019 3.29088C32.5685 2.68402 32.1328 2.20164 31.5726 1.7815C30.3745 0.894535 28.9584 0.458834 27.4335 0.209863C25.5662 -0.101352 23.6989 -0.0546707 21.8472 0.272105C20.2911 0.552198 18.844 1.01902 17.5369 1.79705C16.6655 2.32612 15.9341 2.94855 15.5295 3.80439C15.4051 4.08448 15.3428 4.38014 15.2339 4.70691C21.147 4.31789 26.9978 3.92888 32.8797 3.53986C32.8642 3.43093 32.8331 3.36869 32.8019 3.29088Z" fill="#0071BC"/>
<path d="M24.6795 6.52752C24.664 6.35636 24.4772 6.21631 24.2905 6.21631C24.0882 6.21631 23.9326 6.38747 23.9326 6.55864C23.9482 6.74537 24.1349 6.88542 24.3372 6.86986C24.5395 6.86986 24.6951 6.69869 24.6795 6.52752Z" fill="#0071BC"/>
</svg>
